<svg width="107" height="87" viewBox="0 0 107 87" fill="none" xmlns="http://www.w3.org/2000/svg">
<path fill-rule="evenodd" clip-rule="evenodd" d="M96.114 24.5045C96.114 53.525 74.0285 87 33.6611 87C21.7278 87.0062 10.044 83.5815 0 77.1334C1.74053 77.3452 3.49216 77.4528 5.24551 77.4554C15.1324 77.4711 24.7367 74.1562 32.5117 68.0447C27.932 67.9527 23.4953 66.4321 19.8207 63.6953C16.1462 60.9585 13.4172 57.142 12.0145 52.7785C15.3009 53.4148 18.6896 53.286 21.9183 52.402C16.9476 51.4008 12.4767 48.7079 9.2658 44.7811C6.05485 40.8542 4.30196 35.9358 4.30508 30.862V30.5901C7.35614 32.2799 10.7652 33.2189 14.2506 33.3297C9.60799 30.2221 6.32194 25.4623 5.06035 20.0174C3.79875 14.5725 4.65628 8.85126 7.45865 4.01635C12.9724 10.7973 19.8486 16.343 27.6416 20.294C35.4346 24.2451 43.9703 26.5132 52.6954 26.9513C51.6071 22.2415 52.0996 17.3041 54.0967 12.9025C56.0939 8.50087 59.4844 4.88019 63.7441 2.60022C68.0038 0.32025 72.8955 -0.492009 77.6628 0.289023C82.4301 1.07005 86.8075 3.40088 90.1182 6.92112C95.032 5.94855 99.7443 4.14591 104.053 1.59048C102.41 6.67513 98.9807 10.9912 94.4003 13.7387C98.7505 13.2329 102.999 12.0695 107 10.2881C104.055 14.7002 100.348 18.5513 96.0513 21.6604C96.0931 22.6015 96.114 23.5634 96.114 24.5045ZM39.8068 52.8317C39.2119 53.6481 39.0581 54.7489 39.4966 55.7283C40.1473 57.1672 41.8421 57.7879 43.2799 57.1137C48.2878 54.7828 52.7118 51.4908 56.4362 47.3277C60.1665 43.1564 62.9549 38.3663 64.7213 33.1105C65.2279 31.6014 64.428 29.9789 62.9307 29.4899C61.4382 28.9983 59.8129 29.8281 59.3073 31.3317C57.7921 35.8375 55.3999 39.9338 52.2035 43.518C49.0099 47.0917 45.2181 49.9117 40.928 51.9078C40.4663 52.1246 40.085 52.4499 39.8068 52.8317ZM45.4612 61.8281C44.8486 62.6689 44.708 63.8105 45.1929 64.7988C45.884 66.2175 47.5978 66.7836 49.0135 66.0747C54.7831 63.1735 59.9099 59.2371 64.2609 54.374C68.6402 49.4755 72.0025 43.8911 74.25 37.7794C74.7974 36.2876 74.0438 34.6429 72.5634 34.1103C71.084 33.5722 69.444 34.3539 68.8884 35.846C66.8972 41.2613 63.9219 46.2135 60.0267 50.5631C56.1657 54.8817 51.6188 58.3701 46.5064 60.9421C46.0765 61.1572 45.7276 61.4626 45.4612 61.8281ZM51.0305 70.8371C51.285 70.4877 51.6202 70.1911 52.0293 69.9733C57.9888 66.8435 63.3114 62.6831 67.8523 57.6039C72.4044 52.5204 75.9538 46.7491 78.4118 40.4488C78.992 38.9685 80.6486 38.2237 82.1197 38.7869C83.5891 39.3488 84.3117 41.0082 83.7305 42.4941C81.0195 49.4433 77.0954 55.8123 72.082 61.4177C67.0782 67.0176 61.2065 71.6049 54.632 75.0573C53.2248 75.7974 51.5022 75.256 50.7837 73.8547C50.2713 72.8587 50.406 71.6941 51.0305 70.8371Z" fill="black"/>
</svg>
